<?xml version="1.0" encoding="UTF-8"?>
<svg xmlns="http://www.w3.org/2000/svg" viewBox="0 0 100 220">
  <defs>
    <linearGradient id="mg" x1="40%" y1="0%" x2="60%" y2="100%">
      <stop offset="0%"   stop-color="#64C8F5"/>
      <stop offset="50%"  stop-color="#2980D9"/>
      <stop offset="100%" stop-color="#0D47A1"/>
    </linearGradient>
  </defs>

  <!-- Head -->
  <circle cx="50" cy="16" r="13" fill="url(#mg)"/>

  <!-- Neck -->
  <path d="M 46 29 L 54 29 L 55.5 38 L 44.5 38 Z" fill="url(#mg)"/>

  <!-- Right arm — forward running position (going down-forward) -->
  <path d="M 68 42
           C 76 44 84 56 84 70
           C 84 78 80 82 76 80
           C 72 78 70 70 70 62
           C 70 54 68 46 68 42 Z"
        fill="url(#mg)"/>

  <!-- Left arm — back running position (going down-back) -->
  <path d="M 32 42
           C 24 44 16 56 16 70
           C 16 78 20 82 24 80
           C 28 78 30 70 30 62
           C 30 54 32 46 32 42 Z"
        fill="url(#mg)"/>

  <!-- Right leg — raised/bent (knee up, stride forward) -->
  <path d="M 56 112
           C 62 112 72 116 80 132
           C 86 144 86 156 82 162
           C 78 166 74 162 72 154
           C 68 144 64 134 60 124
           C 57 118 55 114 56 112 Z"
        fill="url(#mg)"/>

  <!-- Left leg — supporting leg, straight down -->
  <path d="M 44 112
           C 40 112 34 118 32 134
           L 28 220 L 44 220
           L 46 140 C 46 126 44 116 44 112 Z"
        fill="url(#mg)"/>

  <!-- Torso (broad shoulders, athletic male) -->
  <path d="M 44.5 38
           C 30 38 24 44 24 54
           C 22 66 24 78 28 87
           C 30 93 30 99 28 105
           C 26 111 24 113 24 117
           L 44 117
           C 44 113 46 110 50 110
           C 54 110 56 113 56 117
           L 76 117
           C 76 113 74 111 72 105
           C 70 99 70 93 72 87
           C 76 78 78 66 76 54
           C 76 44 70 38 55.5 38 Z"
        fill="url(#mg)"/>
</svg>
