<?xml version="1.0" encoding="UTF-8"?>
<svg xmlns="http://www.w3.org/2000/svg" viewBox="0 0 100 220">
  <defs>
    <linearGradient id="fg" x1="40%" y1="0%" x2="60%" y2="100%">
      <stop offset="0%"   stop-color="#D84EC8"/>
      <stop offset="50%"  stop-color="#9B2DB0"/>
      <stop offset="100%" stop-color="#5B1280"/>
    </linearGradient>
  </defs>

  <!-- Ponytail -->
  <path d="M 58 12 C 65 5 78 6 80 14 C 82 22 74 28 66 25
           C 70 21 74 17 70 11 Z" fill="url(#fg)"/>

  <!-- Head -->
  <circle cx="46" cy="18" r="13" fill="url(#fg)"/>

  <!-- Neck -->
  <path d="M 42 31 L 50 31 L 51.5 39 L 40.5 39 Z" fill="url(#fg)"/>

  <!-- Left arm — bicep curl (J-shape): upper arm down-outward, forearm back up) -->
  <path d="M 21 41
           C 28 41 30 50 28 65
           C 27 72 24 78 20 80
           C 16 82 10 81 9 76
           C 8 71 10 64 13 57
           C 15 50 17 44 21 41 Z"
        fill="url(#fg)"/>

  <!-- Right arm (mirror) -->
  <path d="M 79 41
           C 72 41 70 50 72 65
           C 73 72 76 78 80 80
           C 84 82 90 81 91 76
           C 92 71 90 64 87 57
           C 85 50 83 44 79 41 Z"
        fill="url(#fg)"/>

  <!-- Torso + legs (hourglass athletic) -->
  <path d="M 40.5 39
           C 28 39 24 44 24 52
           C 22 62 24 74 28 83
           C 30 89 29 95 26 100
           C 23 106 21 111 21 117
           L 19 220 L 37 220
           C 37 158 38 130 42 116
           Q 46 108 50 110 Q 54 108 58 116
           C 62 130 63 158 63 220 L 81 220
           L 79 117
           C 79 111 77 106 74 100
           C 71 95 70 89 72 83
           C 76 74 78 62 76 52
           C 76 44 72 39 59.5 39 Z"
        fill="url(#fg)"/>
</svg>
